<svg xmlns="http://www.w3.org/2000/svg" width="720.602" height="266.85" viewBox="0 0 720.602 266.85"><g style="display:inline"><g style="fill:#e5a952;fill-opacity:1"><path d="M293.76 459.846a9671 9671 0 0 0-40.8-.431l-63.84-.515c-23.496-.189-56.904-.566-74.24-.837l-31.52-.495-3.52-.452-3.52-.452-14.24-.142-14.24-.142-4.051-.51-4.051-.51-1.87-.613c-2.587-.85-7.818-3.023-9.362-3.891l-1.283-.72-2.552-2.82c-1.405-1.55-2.911-3.434-3.348-4.187l-.795-1.369-.497-2.4c-.627-3.03-.845-3.735-2.125-6.88l-1.042-2.56-.149-3.04-.148-3.04.714-5.6.715-5.6-.177-2.56-.177-2.56-1.28-4.03c-2.062-6.49-3.066-11.22-3.9-18.37l-.373-3.2.014-7.2.014-7.2.506-4.47c.689-6.09 1.549-11.009 3.234-18.498l1.423-6.327v-6.545l-.46-2.56c-.253-1.408-1.11-5.224-1.903-8.48l-1.444-5.92-.652-4.48c-1.783-12.238-1.717-23.079.283-46.24.358-4.136.866-10.4 1.13-13.92l.481-6.4.003-5.86c.004-9.943-.898-19.675-3.387-36.54C7.188 173.2 6.64 168.724 6.03 158l-.396-6.958.395-11.121c.414-11.689 1.138-24.614 1.634-29.201l.295-2.72.728-1.32.728-1.322-.599-1.326-.598-1.326.535-8.073c.294-4.44.694-11.457.89-15.593l.355-7.52-.182-10.56-.18-10.56-.499-5.216C8.862 42.315 8.35 37.927 8 35.433l-.639-4.536v-5.383l.388-1.294.388-1.294 1.012-1.013 1.013-1.013 5.4-1.937C33.8 12.419 52.72 9.006 78.24 7.656l6.72-.356 20.64.11c11.352.06 32.664.062 47.36.003 49.39-.198 77.795-.214 98.4-.055l20.48.158 8.48-.439 8.48-.438 61.12-.142 61.12-.142 68.16.342c37.488.188 74.64.481 82.56.651s22.896.465 33.28.655c29.562.541 53.48 1.424 56.754 2.095 1.912.392 3.45.94 4.17 1.484l.762.578 2.277.003c5.872.008 16.545 1.012 20.517 1.929 1.408.325 3.856.753 5.44.951s3.234.53 3.666.739l.787.378.187.8.186.8.787.088c.433.048 2.155.309 3.827.579l3.04.492 1.813.812 1.814.813 1.608 3.248c.885 1.786 1.976 4.377 2.423 5.758l.815 2.51.31 3.281.312 3.282-.159 8.448c-.087 4.647-.153 13.305-.147 19.241l.011 10.792-.945-.189-.944-.189-.21.836-.21.837.994.929c.547.51.995 1.156.995 1.433v.504l.796.522.796.522.965 1.685c.53.927 1.699 2.604 2.597 3.726 2.029 2.533 3.296 5.007 3.79 7.395l.38 1.836-.201.324c-.331.536-1.018.372-2.038-.486l-.965-.812-.1-.868-.1-.869-.8.111c-1.116.156-1.113.144-.526 2.202l.528 1.847-.542.4-.542.4h-2.452l-.358.787-.358.786.718 1.694c.395.931.827 1.81.96 1.952l.241.258 1.354-.705c.744-.388 1.431-.909 1.526-1.157l.173-.45-.67-.625-.67-.625.178-.465c.207-.538 1.25-.941 1.705-.66l.31.193-.307.81c-.17.444-.308.876-.308.959s.706.056 1.569-.058l1.569-.208.333.623.334.624.11 40.614.11 40.613 1.355 3.84c3.798 10.76 4.097 19.74 1.638 49.12l-.951 11.36-.473 13.268c-.553 15.521-.94 22.814-2.072 39.052-1.907 27.363-2.44 36.23-2.913 48.48l-.37 9.6.252 15.2c.14 8.36.257 18.512.261 22.56l.007 7.36-.866 3.15c-.477 1.732-1.67 5.332-2.65 8-4.963 13.496-5.78 16.468-7.316 26.61-.894 5.901-1.826 10.058-2.73 12.164l-.573 1.339-.874.687c-.48.379-1.457.845-2.17 1.037l-1.296.349-7.382-.227-7.382-.227-.36-.287-.361-.288.461-1.353.462-1.354 1.061-1.12c1.244-1.314 1.777-2.265 1.777-3.174v-.657l-1.305-.863-1.305-.864.205-1.088c.112-.598.111-1.508-.001-2.02l-.205-.934h-.795c-.438 0-1.088.156-1.445.348l-.65.347.2 1.062.199 1.063-.825.649c-.454.356-.998.72-1.209.807l-.384.158 1.04.979c1.317 1.238 1.305 1.549-.08 2.128-.616.257-1.12.598-1.12.757 0 .615 1.327 3.346 1.791 3.685l.489.357-1.329.87-1.328.87-7.252.003c-7.371.003-20.007.352-34.451.95-4.4.183-11.456.476-15.68.65-18.45.766-24.094.968-36.16 1.296l-12.8.348-57.12-.513c-31.416-.282-68.064-.556-81.44-.608l-24.32-.095-1.46-.416-1.458-.415-2.221.556-2.221.557-13.6.258c-7.48.142-26.488.33-42.24.416l-28.64.159zm183.07-14.108c1.092-.777 1.163-1.268.298-2.051l-.633-.573.192-.31c.105-.17.674-.511 1.264-.758l1.073-.448-.172-.879-.172-.879.476-.64.476-.64 1.006.591c1.167.686 1.485.547.967-.421-.512-.957-.297-1.35.974-1.773l1.101-.367.418-.856.418-.857-.197-.318c-.108-.176-.603-.319-1.099-.319h-.902l-.489.72-.489.72-1.516-.8-1.517-.8-.67-1.178-.67-1.178.764-.813.763-.812-.397-.479-.398-.479-1.89.954c-1.039.525-1.889 1.077-1.889 1.226 0 .5 1.289 1.919 1.928 2.122l.632.2v.905l-.72.149c-3.06.632-4.143.702-5.554.361l-.994-.24-.178 1.231c-.097.677-.082 1.875.035 2.661l.211 1.43 1.406.49 1.406.49.674.903.673.902-.054 1.38-.053 1.38.694.336c1.063.514 1.788.441 2.805-.283m20.03-1.777.198-.519-.504-1.481c-.277-.815-.592-2.008-.698-2.653l-.194-1.172-.999-.348c-.55-.191-1.193-.348-1.43-.348h-.433v.896c0 .493-.165 1.061-.368 1.264l-.367.367.583.89c.32.49.671 1.325.78 1.856l.196.967.788.107c.433.059.925.239 1.092.4.473.456 1.136.346 1.355-.226m-5.504-10.992 1.005-1.431 1.047-.214 1.047-.214.921-1.075c.507-.591 1.007-1.325 1.112-1.63l.192-.555-.422-.885-.422-.885-1.079-.103-1.078-.104-.346.346-.346.346-.653-.622c-1.375-1.307-2.155-2.136-2.883-3.062l-.753-.958-.382.838-.382.838.353.66c.194.362.353.934.353 1.27v.612l-.625.565-.625.566.187.933.186.932-.53.586-.53.585.489.405.488.405.004 1.001c.002.55.093 1.333.202 1.738l.197.737 1.134-.097 1.134-.097zm12.592-6.642 1.389-.156-.189-.685a23 23 0 0 1-.377-1.81l-.189-1.125.67-.605c.824-.747.848-1.493.078-2.444l-.59-.729-.53.204-.53.203v.692c0 .782-1.178 2.848-1.624 2.848-.16 0-.546-.54-.858-1.2l-.567-1.2-1.756.048c-2.03.056-3.771.39-4.006.77-.09.144.636 1.158 1.613 2.252l1.775 1.99 1.511.732 1.512.733.64-.181c.352-.1 1.265-.252 2.028-.337m-232.993-1.244.715-.451.145-.716c.08-.394.226-1.535.325-2.537l.181-1.82-.323-.2c-.178-.11-.594-.114-.925-.01l-.601.191-.836 1.263-.836 1.263v3.897l.72-.215a7 7 0 0 0 1.435-.665m15.602-18.232.66-.829 1.188.567c2.045.975 1.984-.093-.16-2.805l-1.312-1.66.698-1.214.698-1.212-1.263-.645c-.694-.354-1.346-.778-1.447-.943l-.185-.299.868-.683.868-.683.975.098.975.097.1-1.75.098-1.75-.56-.41c-.308-.226-.809-.41-1.113-.41h-.553l-1.308 1.257-1.308 1.257-1.013-.29-1.013-.29-.385.319c-.212.175-.562.951-.778 1.723l-.393 1.404.223 1.322.223 1.321 1.158.549 1.158.548.214 1.053c.118.58.464 1.328.768 1.665l.553.611-.675 1.093c-.908 1.47-.819 1.644.912 1.78l.468.038zm230.542-20.912.46-.29-.419-.505-.418-.504h-2.436l-.743-.92c-.409-.506-1.076-1.092-1.483-1.302l-.74-.382.206-1.658.207-1.658-.81-.76-.81-.76-.195-.887c-.107-.488-.47-1.137-.808-1.442l-.614-.555-.888.564c-.488.31-1.197.845-1.575 1.187l-.687.623-.021 1.747-.021 1.747.593.593.592.592 1.452-.163 1.452-.164 1.623 1.37 1.624 1.368v1.017c0 .559.096 1.112.213 1.23.318.318 3.716.248 4.246-.088m2.27-2.579.194-.8-.245-1.116c-.223-1.016-.159-2.505.21-4.884l.136-.88h-2.532l-.204.88c-.112.484-.525 1.456-.917 2.16l-.713 1.28.045 1.342.046 1.342.785.61c.996.773 1.584 1.003 2.373.927l.627-.061zm7.11-9.76.154-.811-.624-1.165-.624-1.165.139-.729c.2-1.042-.069-1.291-1.609-1.492l-1.364-.178-.316.589c-.79 1.475.118 3.473 2.31 5.085 1.453 1.068 1.707 1.05 1.933-.135m78.354-.251 1.087-.731.105-.727.104-.726-.363-.438c-.2-.24-.8-.59-1.336-.776l-.973-.34-.166.635-.166.634h-.602c-.332 0-.891.288-1.243.64l-.64.64v1.92h3.105zm-499.556-1.823.395-.954-.196-.781c-.197-.788-1.671-2.751-2.065-2.751-.117 0-.555.647-.975 1.438l-.763 1.438 1.404 1.269c1.696 1.534 1.706 1.535 2.2.341m-3.575-5.95.422-.133-.218-.721c-.12-.397-.705-1.358-1.302-2.135l-1.084-1.412v-1.876l-.544-.92-.543-.92.543-1.14c.3-.628.544-1.395.544-1.705v-.564l-1.207-1.178-1.206-1.178-1.013.616c-.557.339-1.18.926-1.382 1.306l-.37.69.173.66.173.66-.572.827a25 25 0 0 0-.8 1.224l-.23.397 1.079.515 1.078.514.35.928.351.929h1.578l.359.432.358.433-.96 1.325c-1.09 1.505-1.193 2.127-.422 2.559l.537.3 1.943-.15c1.069-.083 2.133-.21 2.365-.283m587.048-6.251.78-.356.376-.844c.208-.465.755-1.397 1.217-2.071l.84-1.227-.301-.473c-.166-.26-.848-.783-1.515-1.163l-1.213-.692-.547.344-.547.344-.183 2.046-.182 2.047-.428.678-.428.677.2.523c.235.61.842.663 1.93.167m-92.585-7.974c.35-.685.635-1.436.635-1.668v-.423l-.935-.353-.935-.353-.105-.904-.105-.905-1.342-.94-1.343-.942-.897.585c-2.34 1.522-2.31 3.455.055 3.724l.952.108.37.746c.204.41.842 1.233 1.418 1.828l1.048 1.081.274-.17c.15-.092.56-.729.91-1.414M680 344.519v-.76l.48-.399.48-.398v-1.682l-1.52-1.307c-.836-.72-1.84-1.478-2.23-1.686l-.708-.378-.522.796-.521.796.67.853c.37.469.671 1.145.671 1.502v.65l1.36 1.384c1.562 1.59 1.84 1.686 1.84.63m-189.76-39.837c0-.869-3.589-5.21-4.967-6.009l-.633-.367.4-.417c.22-.23.4-.61.4-.844v-.428l-.64.343-.64.343v1.387l-1.027 1.06-1.028 1.06 1.146.944c.63.519 1.373 1.423 1.65 2.008l.505 1.064 2.417.046 2.417.046zm149.125-5.15c-.226-.547-.752-1.262-1.168-1.589l-.757-.595v-2.5l-.384-.384c-.572-.572-1.061-.473-2.137.432l-.97.817.294.703c.163.387.451 1.322.642 2.078l.347 1.374.822.312c.452.172 1.19.603 1.642.959l.822.646.63-.63.629-.63zM485.12 294.56l-.752-.8h-.584c-1.282 0 .311 1.55 1.632 1.587l.456.013zm-1.23-4.266.946-1.078-.098-.838-.098-.837-1.224-.288-1.225-.288-.176-.459-.176-.459.736-.783c.846-.9.707-.96-.782-.338l-1.067.445-.337-.209c-.186-.114-.437-.603-.558-1.085s-.336-.877-.477-.877c-.406 0-1.914 1.919-1.914 2.435v.465l.56.19c.308.104 1.316.524 2.24.932l1.68.743v.402c0 .221-.448.865-.996 1.43l-.996 1.028.215.347c.118.192.496.348.839.348h.624l.557.655.557.656.112-.73c.062-.401.538-1.214 1.058-1.807m113.87-.975c0-.33.216-.78.48-.999.646-.536.605-1.237-.175-3l-.655-1.48h-2.132l-.398-.48c-.556-.67-.801-.604-1.229.335-.669 1.469-.03 4.626 1.109 5.483l.502.378.43-.165c.236-.09.69-.013 1.009.172.835.486 1.059.435 1.059-.244m-49.982-11.475.745-1.355-.203-.328c-.111-.18-.966-.817-1.9-1.414l-1.696-1.085-.319-.916-.32-.915.472-1.475.47-1.475-.56-.857-.562-.857-1.153.097-1.152.096-.274 1.304-.273 1.303 1.67 2.938 1.671 2.938-.171.719c-.094.395-.271 1.04-.394 1.435l-.222.717.757.31c.416.17 1.186.28 1.712.243l.956-.067zm36.259-3.04 1.083-1.678.51-.097.51-.097 1.475 1.454c1.763 1.738 1.584 1.716 2.94.36l1.094-1.093-.444-.369c-.244-.202-.534-.78-.645-1.285l-.202-.917-1.019-.201c-.56-.11-1.417-.354-1.903-.542l-.884-.34-.146-.68c-.081-.373-.187-1.039-.236-1.479l-.09-.8-.68-.097c-.374-.053-1-.437-1.389-.851l-.709-.755-1.29 1.292-1.292 1.291.519 1.088.519 1.089-.82.311c-.45.172-1.018.312-1.26.312s-.526.139-.63.308l-.191.308.846 1.692c.912 1.825 2.267 3.452 2.874 3.452.207 0 .864-.755 1.46-1.677m88.445-19.131.187-.59 1.433-.84 1.433-.839-.541-.916-.541-.916.533-.815c.77-1.173.707-1.347-1.096-3.076l-1.63-1.562.21-.95.208-.949 1.26-.834c1.393-.922 1.519-1.292.732-2.16-.74-.819-.984-.752-2.337.642-.655.675-1.825 1.577-2.599 2.004l-1.407.777-.108.563-.109.564.985 1.487c.542.818.988 1.714.992 1.992s.289.865.633 1.305c.85 1.088.8 1.442-.32 2.24-1.227.874-1.207 1.07.193 1.897l1.152.68-.213.847-.212.848.487-.405c.269-.223.572-.67.675-.994m-75.416-.473.105-.89-.425-.27c-.234-.149-.876-.272-1.427-.275l-1-.005-.44-.53-.439-.53.048-1.546.048-1.547-1.226-.33-1.226-.33-.664-1.075c-.366-.592-.795-1.77-.953-2.617l-.288-1.54-.573-.42-.572-.418-.657.208c-.361.114-.984.42-1.383.681l-.725.475.351.423c.193.233.88.595 1.526.806.646.21 1.27.53 1.386.71l.212.326-.305.802c-.168.441-.232.993-.142 1.227l.163.425h.61c.337 0 .781.204.989.454l.377.454-.402 1.946-.402 1.946.355.355c.195.195 1.306.618 2.467.94 1.162.323 2.332.805 2.599 1.072l.485.485.711-.26.711-.261zm-454.286-6.084.366-.803-.672-1.517c-.37-.834-.757-1.916-.86-2.404-.234-1.093-1.247-2.152-2.06-2.152h-.607l-.209 1.36a32 32 0 0 0-.273 2.624l-.065 1.265 1.735 1.215c2.051 1.438 2.17 1.456 2.645.412m527.446-6.854.184-.298-.34-.21c-.187-.116-.559-.127-.826-.025l-.485.186.2.323c.25.404 1.023.42 1.267.024m-106.066-4.697c0-.438.223-1.228.495-1.754l.495-.958-.495-1.931-.495-1.932.178-.708.177-.707-.332-.876c-.184-.481-.561-.963-.84-1.07l-.506-.194-.363.363-.362.362.384.384c.604.604.459 1.206-.576 2.385l-.96 1.093v2.9l.366.699c.202.384.79 1.24 1.308 1.9l.942 1.202.292-.18c.16-.1.292-.54.292-.978m-62.123-8.525c.18-.572.423-1.863.54-2.87l.214-1.829 1.085-.64 1.084-.64v-.829c0-.456-.162-1.471-.36-2.257l-.36-1.428-.42.35c-.232.192-.466.663-.52 1.046l-.1.697-1.12.365-1.12.366v2.773l-.88.425c-1.043.505-1.07.703-.274 2.012l.606.996-.168 1.251-.168 1.252h1.634zm50.105-1.872 1.138-.671v-1.173l-.996-.71-.996-.71-.444-1.06c-.243-.584-.71-1.203-1.034-1.377l-.592-.317-.369.369-.369.369.003 1.296.003 1.296.782 1.68.782 1.68h.477c.262 0 .988-.302 1.614-.672zm25.076-1.312.099-1.185.62-.196c.34-.108.836-.414 1.101-.679l.482-.482v-3.196l-.331-.619-.331-.619h-.774c-.426 0-1.14-.167-1.589-.371l-.815-.372-.825.376-.825.376.129.396c.07.217.514.583.985.812l.856.418v.422c0 .232-.375 1.093-.833 1.912l-.832 1.49.427 1.445.426 1.445.966-.094.966-.095zm-46.204-17.73.506-.194v-1.097c0-.602-.216-1.613-.48-2.244s-.48-1.267-.48-1.41c0-.342 2.727-.748 3.367-.503l.495.19-.49.95c-.68 1.314-.632 1.39.5.805l.993-.513.708.665c.964.905 1.058.86 1.311-.64l.22-1.305-.67-.713-.67-.713.078-1.262.078-1.262-1.365-.099-1.365-.098-.47-.718c-.259-.395-.566-1.193-.682-1.773l-.21-1.055-1.282-.928c-.705-.511-1.47-.929-1.7-.929s-.82-.504-1.312-1.12-1.002-1.12-1.134-1.12h-.24l.002 1.52.002 1.52.636.96.636.96.002.873.002.872.812.533.812.532-.064 1.315c-.035.723.035 1.62.156 1.991l.219.677-1.456.407c-.8.224-1.54.543-1.641.708l-.185.3.634.696c.348.383 1.013 1.308 1.477 2.056l.844 1.36h.45c.247 0 .677-.087.955-.194zm183.163-2.751c.212-.212.78-.392 1.264-.4l.879-.015-.108-1.366-.108-1.366.988-1.125c1.093-1.244 1.188-1.667.57-2.512l-.418-.572-.77.11-.769.111-.378 1.312c-.476 1.651-1.84 3.835-2.673 4.28l-.635.34.362.794.362.794h.524c.289 0 .698-.173.91-.385m-256.575-7.618.344-.643-.832-.316-.833-.317.228-.4c.126-.22.43-.637.678-.926l.45-.526-.979-.696c-1.148-.818-1.201-1.108-.338-1.847.352-.302.64-.71.64-.908 0-.197-.288-.62-.64-.938-.683-.619-.846-1.595-.32-1.92.491-.304.38-1.483-.2-2.125l-.52-.574-.572.305c-.314.168-.872.793-1.24 1.388l-.668 1.082v.863c0 .475-.15 1.142-.331 1.482l-.332.619H449.6v.251c0 .138.434.507.964.82l.965.57.431 1.02c.238.56.74 1.293 1.116 1.629l.684.61v1.249l.73-.183.73-.183.95.626c1.154.761 1.017.762 1.432-.012m79.519-4.503.21-1.147-.821-.538-.822-.538-.64-1.254c-.351-.69-.791-1.348-.977-1.463l-.339-.21-.466.388c-.62.515-.59 1.407.066 1.949.293.241.809 1.063 1.147 1.826s.905 1.677 1.26 2.032l.645.645.263-.272c.145-.15.358-.788.474-1.418m-110.068-2.024.615-.45-.349-1.308-.349-1.308.387-.746c.524-1.01.755-2.338.483-2.778l-.223-.361-1.089.606-1.088.606-.096.65c-.054.358-.522 1.058-1.04 1.555l-.944.904v.524c0 .546.98 1.574 2.08 2.183.829.458.885.455 1.613-.077m74.128-19.176.862-.627.973.403.973.403.485-.187c.267-.102.486-.334.486-.516v-.33h-1.874l-.477-.477c-.518-.518-.7-1.252-1.017-4.122-.114-1.033-.401-2.428-.638-3.099l-.43-1.22.379-.315c.209-.173.883-.362 1.498-.42l1.119-.107.103-1.08.103-1.08-1.47.22-1.471.222-.444-1.061c-.245-.584-.55-1.165-.678-1.293l-.233-.231-.857.506-.858.507-.42 2.362-.42 2.362.203 2.323c.112 1.278.318 3.15.459 4.16l.256 1.835.912.953.913.952.351-.208c.193-.114.739-.49 1.212-.835m54.339-6.744v-.77l1.102-1.318 1.101-1.319.223-1.488.224-1.488-.72-.584c-.397-.32-.978-.583-1.292-.583h-.571l-1.002 1.56-1.001 1.561.074.968.073.967-.412.497-.412.496.226.736c.342 1.114.788 1.535 1.626 1.535h.761zm28.02-4.059c1.218-1.28 2.199-1.777 4.068-2.057l1.52-.228.796-.626.796-.626v-1.923l-.935-.936c-1.14-1.14-1.443-1.151-3.354-.135-.828.44-1.784.8-2.125.8h-.621l-.855.96-.856.96h-1.736l-.388.467c-.213.258-.464 1.04-.558 1.738l-.17 1.27 1.305.35c.718.194 1.393.492 1.498.664.31.5.618.371 1.615-.678m12.77-8.92.569-.629-.84-1.605-.839-1.605.523-1.305.522-1.306-.356-.78-.355-.781h-1.536l-.382.461c-.21.254-.768.506-1.24.56l-.856.099.045.8c.025.44.155 1.78.288 2.976l.243 2.176 1.472.74c1.879.945 2.056.958 2.742.2m-111.102-2.142.163-.852-.29-.828-.29-.829-.956-.545-.955-.545v-1.316l-.96-1.004-.96-1.005v-2.033l-.78-.733-.78-.733-1.432-.162-1.432-.16-.533 1.03-.533 1.032.33.847c.182.466.373 1.202.425 1.635l.095.788 1.112.227 1.113.226 1.198 1.385L480.94 148l.01 1.04.01 1.04h.341c.188 0 .638-.159 1-.353l.659-.352.833.832c1.042 1.043 1.213 1.04 1.415-.018zm165.827-1.058.572-1.268-.41-.992-.412-.992-1.613-.921-1.612-.921-.29.179-.29.179.218 2.602.219 2.603.513.4.512.4h2.02zm-226.673-14.06.752-.61-.557-.616-.557-.615v-1.694l-1.04-.532c-.572-.293-1.513-.945-2.091-1.448-1.283-1.118-1.405-1.123-2.531-.103l-.898.812.628.388c.345.213 1.029.772 1.52 1.242l.892.856v2.258l.56.325c.308.18 1.012.33 1.565.336l1.004.01zm195.869-11.197c-.05-.225.203-.882.56-1.46l.649-1.05v-1.694l1.144-.546 1.144-.545-.204-.81a44 44 0 0 1-.38-1.689l-.177-.88h-1.377c-.758 0-1.607.088-1.888.196l-.51.196.651 1.053.652 1.054-1.753 2.185-1.752 2.186 1.185 1.188 1.185 1.19.48-.083.48-.083zm-173.256-5.034.095-1.635-.815-.969c-.448-.532-.815-1.191-.815-1.463 0-.273-.133-.577-.295-.678l-.295-.182-.985 1.46c-1.193 1.767-1.189 1.625-.063 2.208l.923.477.223.889c.123.49.379 1.076.568 1.305l.345.415.51-.096.509-.097zm127.722-1.678.32-.598-.215-.215-.215-.215.77-1.409.77-1.408-.73-1.557-.729-1.557.213-1.137.214-1.137-.748-.2c-.41-.11-1.229-.202-1.818-.205l-1.07-.004-.93.55c-1.248.737-1.179.966.511 1.69l1.44.618-.006.891c-.004.49-.146 1.827-.316 2.971l-.309 2.08.876.719c1.068.876 1.554.906 1.973.123zm133.467-2.042.634-1.04v-1.138l.002-1.138-.8-1.084c-.44-.596-.8-1.272-.8-1.502v-.418l1.36-.005c.748-.003 1.54-.12 1.76-.26l.401-.254-.951-.911-.951-.912-.192.499-.19.498-1.42.357-1.417.357v2.448l-.8.365-.8.364v.76c0 .417.155 1.205.346 1.751l.346.993 1.014.65c1.378.883 1.72.83 2.457-.38zm-18.635-.738.711-.498v-1.548l.96-.496c1.124-.581 1.207-.965.313-1.444l-.648-.346.208-2.028.208-2.027-.59-.997c-.324-.55-.666-.999-.76-1-.094 0-.573-.324-1.065-.72l-.895-.718.988-1.34.987-1.34-.92-1.03-.92-1.03-1.02.604-1.02.603-.357 1.286c-.397 1.431-.405 1.636-.109 2.594l.207.668-.823.979c-.453.538-.824 1.193-.824 1.456v.478l2.24 1.81c2.577 2.082 2.567 2.052 1.236 3.71l-1.005 1.249.532.812.532.811h.561c.309 0 .882-.224 1.273-.498m-7.952-12.595 1.317-1.573-.967-.689-.967-.689v-2.089l-1.261-1.013c-1.397-1.123-1.817-1.207-2.698-.54l-.598.453.222 1.185.222 1.184 1.092.967 1.091.966-.204 1.274-.203 1.274.59.432c.85.621.914.59 2.364-1.142m6.359-24.731c.211-.211.384-.759.384-1.217v-.833l-1.103-1.07-1.103-1.069-.097-.81-.097-.81-1.44-.76-1.44-.761-.88.982c-.484.54-.88 1.186-.88 1.435v.453l.96.684.96.684v1.555l1.52.954c1.628 1.023 2.6 1.199 3.216.583M676.89 69.44h.65l-.53-.585c-.696-.769-.669-1.195.16-2.536l.69-1.117.03-1.433.03-1.434-1.18-1.007-1.179-1.008-.1-.96-.1-.96-.8.097-.8.096-1.04 1.099-1.04 1.099v2.271l1.12.66 1.12.661v.434c0 .238-.162.786-.359 1.218l-.358.786.573 1.498.572 1.5.946-.19c.52-.104 1.237-.189 1.595-.189m-8.798-3.2-.092-.8-1.376-.1-1.375-.098-.375-.861c-.207-.474-.844-1.556-1.416-2.404-1.012-1.5-1.693-3.297-1.696-4.475l-.002-.579-1.36.099-1.36.098-.058 2.88-.058 2.88.633.677c.348.372 1.814 1.225 3.258 1.896s2.96 1.476 3.37 1.79l.747.57.625-.387.626-.386zm-165.033-1.334 1.261-1.013v-.463c0-.255-.316-1.025-.702-1.712l-.702-1.25.382-1.057c.21-.58.382-1.461.382-1.956v-.9l-.666-1.077-.666-1.078h-2.144l-.616.88-.616.88-.204 1.797-.203 1.796 1.63 1.631 1.631 1.631-.115 1.453c-.138 1.728-.223 1.7 1.348.438M703.28 52.958c1.444-.29 1.299-.657-.434-1.093l-1.474-.371.227-.707c.125-.389.3-1.17.388-1.735l.16-1.028-.705-1.14-.705-1.14.512-.781c.28-.43.511-.916.511-1.082v-.302l-1.6-.41-1.6-.41v-.53c0-.291.288-.79.64-1.109.895-.81.84-.899-.958-1.537l-1.599-.568-.47-.91-.47-.91 1.108-2.25c.61-1.238 1.109-2.479 1.109-2.758v-.507h-1.892l-1.097.72c-.604.396-1.546.965-2.094 1.265l-.997.545v1.577l1.45.554c.798.305 1.527.677 1.62.827l.168.273-1.059.996-1.059.995.48.192c.264.105 1.128.413 1.92.683l1.44.493.095.968.095.968-1.496 1.054-1.497 1.055.282.251c.154.139 1.577.645 3.161 1.126s3.024 1.017 3.2 1.191l.32.317-1.2 1.015c-1.502 1.27-1.496 1.382.11 2.025l1.311.524-.175.875c-.2 1.005.013 1.338.73 1.138.278-.076.972-.233 1.544-.349M501.418 41.631c.853-1.198.862-1.155-.498-2.349l-1.16-1.018.198-2.124.198-2.125-.585-.529c-.321-.29-1.256-.757-2.078-1.037l-1.493-.51v-.49c0-.27.504-1.05 1.12-1.731l1.12-1.24v-.76c0-.923-.468-1.325-1.85-1.587l-1.05-.2-.32.84-.318.839.489.54c.762.842.6 1.314-1.008 2.947l-1.496 1.52.456.146c.252.081.997.237 1.657.347l1.2.199v.403c0 .222-.36.892-.8 1.488l-.8 1.084v2.04l1.418.357 1.418.357.152.561c.084.309.238.945.342 1.414l.189.853.88.322c.485.177 1.123.333 1.42.347l.537.025ZM696.051 29.6c-.06-.88-.224-1.72-.365-1.869l-.255-.268-.54 1.621-.538 1.622.214.345.213.346.69-.099.69-.098zm-39.411-3.874c0-.106-.364-.626-.808-1.154l-.808-.96.193-1.166c.106-.641.425-1.848.71-2.681l.516-1.516-.541-1.135c-.298-.625-.542-1.342-.542-1.594s-.525-.984-1.167-1.626l-1.167-1.167-1.233.37c-1.356.406-1.427.54-.757 1.425l.457.603-.467.902c-.584 1.13-.592 1.788-.025 2.117.243.14.735.742 1.094 1.337l.652 1.08-.162 1-.162.999.989.73.988.73v1.28l.72.29c.858.345 1.52.404 1.52.136M494.4 23.72c0-.33.087-1.034.193-1.564l.193-.965-1.21-.399-1.21-.4-1.246 1.336-1.245 1.336.127.388.128.388 1.735.188c.954.103 1.915.211 2.135.24l.4.052zm114.175-5.865c.3-.563 1.241-1.778 2.092-2.7l1.548-1.675-.108-.546c-.059-.3-.353-.7-.653-.889l-.545-.344-.737.693c-.405.38-1.31.88-2.01 1.109l-1.273.417-.117.64c-.064.352-.422.972-.796 1.377l-.68.737.472.298c.26.164.583.3.719.303s.41.365.611.805c.483 1.06.82 1.009 1.477-.225m-131.905-4.58.202-.805-1.27-1.379c-.7-.758-1.334-1.566-1.41-1.795l-.14-.417-1.426-.252c-.784-.138-1.729-.347-2.099-.464l-.673-.213-.911.783-.911.784.571.872.571.871.665-.173.664-.174.589.315.588.315v.75c0 1.236.544 1.467 4.074 1.733l.714.054zM.01 348.4l.011-2 .63.755c.883 1.06.652 3.245-.342 3.245H0ZM0 310.08v-2.24h.43c.237 0 .693.29 1.014.644l.583.644v1.904l-.583.644c-.32.354-.777.644-1.014.644H0Z" style="display:inline;fill:#e5a952;fill-opacity:1" transform="matrix(1 0 0 .58797 0 -3.736)"/><path d="M324.388 459.642c-.085-.086-44.661-.538-90.948-.922-10.912-.091-26.104-.246-33.76-.345s-29.688-.315-48.96-.48c-19.272-.166-42.528-.438-51.68-.605l-16.64-.304-2.08-.367-2.08-.366-15.52-.239-15.52-.238-3.04-.387c-4.195-.535-6.837-1.175-9.28-2.25a165 165 0 0 0-3.84-1.625c-2.393-.965-3.681-1.962-6.413-4.96L22.3 444l-.734-1.6c-.403-.88-1.021-2.927-1.373-4.548l-.64-2.948-.966-2.201-.966-2.201-.352-2.266-.352-2.266.581-4.585.581-4.585-.001-4.96-.001-4.96-1.174-3.52c-2.063-6.182-3.12-11.309-3.953-19.154l-.471-4.434v-5.006c-.001-9.306 1.333-19.323 4.076-30.606l1.167-4.8-.01-4.32-.012-4.32-.388-2.08c-.214-1.144-.95-4.312-1.634-7.04-1.355-5.395-2.301-10.434-2.946-15.68l-.413-3.36.006-12 .006-12 .407-4.48c.485-5.34.87-9.778 1.316-15.2.182-2.2.5-5.872.709-8.16l.379-4.16-.007-8.96-.006-8.96-.372-3.84c-1.009-10.409-1.813-16.539-4.535-34.56a811 811 0 0 1-.943-6.4 630 630 0 0 0-.627-4.336c-.31-2.08-.74-5.647-1.31-10.864-.164-1.496-.52-6.176-.79-10.4l-.492-7.68.18-2.4c.1-1.32.324-6.576.499-11.68.315-9.211.657-15.79 1.223-23.57l.295-4.05.831-1.418.831-1.418-.002-.772-.002-.772-.64-.96-.64-.96.165-1.28c.526-4.053 1.741-29.23 1.745-36.16.006-9.24-.896-21.96-2.122-29.92l-.518-3.36-.03-3.36-.03-3.36.726-1.48.726-1.48 2.471-1.119c6.889-3.12 23.235-7.724 32.711-9.213.968-.152 2.624-.43 3.68-.62 5.977-1.068 15.701-2.12 26.88-2.91l5.12-.361 16.48-.049c9.064-.026 27.856.077 41.76.23l25.28.277 10.24-.437 10.24-.438 22.08.06c12.144.033 28.128.177 35.52.32l13.44.26 10.08-.196c5.544-.107 16.632-.376 24.64-.598l14.56-.402L328 6.922c36.007-.064 140.59.201 141.029.359l.389.139-.95.798c-1.076.907-1.151 1.341-.46 2.678l.488.944h2.544v1.897l.619.332c.34.182 1.07.331 1.621.331s1.28.148 1.618.33l.616.33.924-.478c1.688-.873 1.616-1.74-.334-4.022l-1.707-2-.477-.56-1.04-.005c-.572-.003-1.256-.144-1.52-.315l-.48-.31 1.44-.012c6.162-.053 67.137.072 68.64.14 1.056.047 8.76.183 17.12.3 8.36.119 17 .28 19.2.36s9.256.223 15.68.317c30.904.452 57.605 1.516 59.965 2.388l.608.226-.709.66c-.39.363-1.134.745-1.654.849l-.945.189-.195.508-.195.508.395.739.395.738-.352.659c-.194.362-.353.937-.353 1.276v.617l.96 1.208.96 1.208v2.748l.939.669.938.668.102.706.101.705.8.403c.44.222 1.34.406 2 .408l1.2.005v-.476c0-.261-.517-.949-1.148-1.528l-1.148-1.052.735-2.803.735-2.802-.525-1.03c-.289-.566-.618-1.358-.732-1.759s-.57-1.067-1.015-1.48l-.808-.749.378-.707.379-.707.534.463.535.463 6.4.374c8.691.51 12.907.945 16.32 1.685 1.584.344 4.35.825 6.149 1.07 1.797.243 3.573.606 3.944.805l.677.362-.156.405c-.085.222-.058.56.06.75l.214.347 3.446.512c3.557.528 5.912 1.184 7.139 1.988l.705.462 1.158 2.203c1.323 2.518 2.606 5.765 3.29 8.324l.47 1.76.169 8.907.168 8.908-.316.316-.316.316-1.307-.352c-1.612-.434-1.74-.631-1.28-1.953l.367-1.052-.75-1.414-.75-1.414.381-.531c.21-.292.477-.733.593-.98l.212-.45-.729-.59-.729-.591h-.746c-.41 0-.84-.153-.955-.34l-.21-.34.539-.596.54-.596-.109-.557-.108-.556-1.447-.508c-2.652-.93-2.752-1.257-1.273-4.187l.96-1.902V31.04l-.4-.037-.88-.08-.48-.043-.083-1.76c-.046-.968-.156-2.084-.246-2.48l-.163-.72h-.902l-.718 1.84-.717 1.84-.026 1.323-.025 1.323-1.36.721-1.36.722.005.995c.007 1.324.242 1.626 1.755 2.26l1.28.535-1.058.867-1.058.867.19.493.188.493 1.83.477 1.828.476v1.324l-1.44 1.098-1.44 1.099v.87l3.166 1.061c3.831 1.284 3.747 1.21 2.314 2.055l-1.16.684v1.233l.88.312c.484.171 1.096.435 1.36.587l.48.275-.104 1.006-.104 1.006.511.196.512.196 2.09-.525c1.15-.289 2.226-.44 2.393-.338l.302.187V75.84h-1.857l-.352 1.008c-.511 1.468-.452 1.747.605 2.827.525.538 1.045 1.336 1.155 1.774l.2.797.727.182.728.183.877 1.61c.482.887 1.475 2.351 2.206 3.255.732.904 1.652 2.102 2.047 2.662.827 1.175 2.304 4.938 2.304 5.87v.632h-.43c-.668 0-1.425-1.02-1.543-2.08l-.107-.96-1.275.103c-.701.057-1.447.246-1.657.42l-.382.317.48 1.612.478 1.612-.172.448-.172.448h-2.544l-.498.711c-.672.96-.634 1.404.32 3.75l.817 2.013-.097.991-.098.992-1.038.21c-.57.117-1.249.386-1.506.6l-.469.389.185.921.184.922-.823.375-.823.375-.105.516c-.058.283.051 1.235.243 2.115l.348 1.6 1.538 1.04c1.931 1.306 1.908 1.308 3.064-.288l.962-1.328v-2.843l-.64-.814c-.352-.447-.64-.996-.64-1.22v-.406l1.2.154 1.2.154.64-.484.64-.484-1.412-1.445-1.411-1.446.403-.485c.222-.268.892-.663 1.49-.88l1.088-.393.17-.535.17-.536 1.183-.192 1.184-.192.328.327.327.328.112 40.544.112 40.544 1.26 3.68c1.28 3.734 1.829 5.919 2.575 10.24l.415 2.4-.006 10.88-.006 10.88-.394 4.16c-.402 4.244-1.126 12.821-1.688 20-.172 2.2-.45 8.536-.617 14.08-.306 10.144-.65 17.451-1.28 27.2-.187 2.904-.478 7.512-.646 10.24a688 688 0 0 1-.631 9.12 787 787 0 0 0-.65 9.28c-.18 2.816-.474 7.352-.655 10.08-.687 10.33-.923 15.941-1.26 29.904l-.348 14.385.366 10.575c.201 5.817.439 12.368.528 14.558l.162 3.982-.386 2.418c-.578 3.618-1.755 7.826-3.56 12.738-5.287 14.378-5.552 15.37-7.648 28.56-.805 5.065-1.922 9.485-2.76 10.919l-.595 1.019-1.21.628-1.212.628-2.469.043c-1.358.024-4.823-.019-7.7-.094l-5.233-.138-.141-.367c-.247-.643.517-2.157 1.778-3.525l1.222-1.327.407-1.231.406-1.232-.842-.725c-.463-.398-1.063-.847-1.332-.998l-.49-.274-.145-2.2-.145-2.2-.407-.262-.407-.263-.96.191c-.528.105-1.298.405-1.71.667l-.75.476.184 1.012.186 1.013-.242.38c-.132.209-.638.53-1.123.715-.484.185-.969.563-1.075.842l-.195.506 1.083.918 1.082.918-1.014.363c-.558.2-1.09.561-1.184.803l-.169.44.826 1.914.825 1.914-.832.771-.833.772-10.01.055c-11.923.065-28.258.587-51.449 1.646-10.825.494-23.68.932-38.08 1.297l-13.28.336-16.16-.328c-23.088-.469-58.25-.76-100.32-.828l-36.48-.06-2.756-.412-2.756-.412-1.564.201c-.86.11-2.356.36-3.324.555l-1.76.354-21.76.322c-22.527.334-49.69.54-49.851.38zm153.027-13.43.985-.829v-.666c0-.367-.238-.93-.53-1.252-.29-.322-.399-.586-.24-.586s.763-.29 1.34-.642l1.05-.64-.36-.673-.36-.673.347-.346.347-.347 1.31.737 1.312.737.32-.32.318-.318-.507-.981c-.684-1.323-.642-1.607.27-1.836.426-.107 1.022-.466 1.322-.798l.547-.604.037-1.208.037-1.207-1.576-.1-1.576-.1-.28.5-.28.5h-1.298l-.935-.935-.935-.936v-.625c0-.344.216-.805.48-1.024l.48-.399-.21-1.64c-.115-.903-.19-2.192-.165-2.866l.044-1.225-.394.127c-.217.07-.733.987-1.146 2.039l-.75 1.912-1.73.905c-2.046 1.072-2.035 1.018-.611 2.883l1.118 1.464h-.777c-.428 0-1.171.15-1.653.333l-.875.333-1.188-.476-1.188-.475-.539.394-.538.394-.16 1.268c-.087.698-.04 2.055.104 3.016l.263 1.746 1.405.407c.773.224 1.672.648 1.998.943l.592.536v3.4l.88.478c.484.263 1.337.483 1.895.49l1.016.013zm20.038-1.868.509-.775-.503-.972c-.276-.535-.682-1.86-.9-2.945l-.399-1.972-1.571-.615-1.57-.614-.43.164-.429.165v.974c0 .536-.177 1.258-.393 1.604l-.393.629.553.936c.304.515.553 1.3.553 1.744v.807l.503.503.503.503h.758c.417 0 .847.144.956.32s.546.32.972.32h.773zm-5.826-10.688c.51-.762 1.091-1.434 1.29-1.494s.725-.187 1.167-.282l.805-.174 1.223-1.604 1.223-1.604-.223-1.049c-.123-.577-.446-1.301-.717-1.609l-.494-.56h-2.744l-1.135-.67-1.134-.668-.703-1.251-.703-1.251h-1.146l-.529 1.024-.53 1.024.392 1.083.392 1.084-.699.651-.699.652.193 1.027.193 1.028-.805.367-.804.366v.407c0 .224.376.623.835.887l.834.48.088 1.49c.048.819.19 1.654.314 1.856l.227.367 1.48-.097 1.482-.096zm12.373-6.63c.616-.03 1.3-.074 1.52-.1l.4-.046v-.683c0-.375-.167-1.241-.372-1.924l-.372-1.241.692-.737.692-.736v-1.633l-.663-.843-.663-.843h-1.508l-.528.528-.528.527.151.578.151.577-.42.575c-.23.316-.475.502-.543.415a26 26 0 0 1-.673-1.04l-.55-.88h-1.49c-.82 0-1.933.139-2.473.309s-1.379.389-1.863.486l-.88.177v1.237l1.9 2.14 1.9 2.141 1.7.726 1.7.725.8-.191c.44-.106 1.304-.216 1.92-.245m-233.801-.8 1.48-.655.48-.93.481-.93v-1.156c0-.636.152-1.441.338-1.788l.337-.631-.199-.628c-.11-.346-.468-.773-.797-.948l-.597-.32-.77.293-.77.292-.972 1.548-.972 1.547-.164 2.08c-.248 3.162-.172 3.241 2.125 2.225m16.521-18.546c.418-.781.919-.802 2.392-.1l1.134.542.37-.37.37-.37-.613-1.368c-.337-.752-1.086-1.989-1.663-2.747l-1.05-1.38.65-.826c.357-.455.65-1.029.65-1.275v-.448l-1.133-.668-1.134-.67.124-.36.124-.36h1.25c.687 0 1.437-.122 1.668-.27l.418-.27-.23-1.01a8.6 8.6 0 0 1-.172-2.005l.059-.995-.407-.322c-.224-.177-.836-.4-1.361-.495l-.954-.173-.867.448c-.476.247-1.076.749-1.333 1.115l-.468.667-1.392-.105-1.392-.105-.85 1.784-.851 1.784.334 1.416c.184.779.38 1.591.437 1.806.056.214.612.603 1.236.864l1.134.473v1.562l.604.746.604.745-.754 1.11-.754 1.109.333.401c.335.404 1.124.636 2.436.716l.709.044zm230.57-21.124.852-.324.159-.606.158-.607.585-.153.586-.153.31-1.126.312-1.126-.21-1.027-.21-1.027.218-1.963c.12-1.08.318-2.356.44-2.834l.22-.87-1.733.093c-2.108.114-2.39.27-2.655 1.48-.115.52-.561 1.466-.993 2.103l-.785 1.157.069 1.025c.038.565-.029 1.184-.148 1.377l-.216.35.659.837.658.838h-.38c-.21 0-.976-.612-1.703-1.36l-1.323-1.36.108-1.495.107-1.494-.79-.518-.79-.517-.202-1.013-.203-1.012-.69-.736c-.931-.99-1.515-.928-3.174.338-.773.59-1.73 1.176-2.126 1.302-.84.266-.908.59-.24 1.145l.48.398v2.716l.682.867.683.867 1.543-.212 1.543-.212 1.455 1.216 1.454 1.216v2.371l.4.161c.727.293 4.023.218 4.89-.112m9.796-12.476.23-1.12-.599-1.356-.598-1.357.177-1.09.177-1.09-.596-.167c-.329-.091-1.285-.26-2.126-.374l-1.528-.208-.644 1.454-.643 1.454.482.887c.708 1.303 1.468 2.168 2.884 3.283l1.262.992.646-.094.646-.094zm78.414-.41c1.407-1.127 1.62-1.58 1.225-2.616-.359-.944-1.435-1.692-2.84-1.973l-1.042-.208-.179.683-.179.684h-.396c-.217 0-.777.353-1.242.785l-.847.784v1.402c0 1.812.052 1.847 2.364 1.607l1.956-.202zm-499.748-1.494c.268-.52.487-1.347.487-1.84l-.001-.896-.624-1.023c-.343-.562-.978-1.255-1.413-1.54l-.789-.517-.693-1.5c-.381-.825-1.113-2.032-1.626-2.681l-.933-1.181v-2.136l-.492-.703-.493-.703.493-.952c.27-.524.492-1.335.492-1.802v-.85l-.973-1.229c-.535-.675-1.257-1.318-1.605-1.429l-.632-.2-1.109.685c-.61.378-1.405 1.1-1.765 1.607l-.656.921.202.806.202.805-.672.854c-.37.47-.672 1.114-.672 1.43v.577l1.04.377 1.04.378.48.996.48.997.8.195.8.195-.104.451c-.057.249-.38.75-.72 1.113l-.616.66v1.399l.612.612.612.611 2.588-.177 2.588-.177v.686c0 .378-.278 1.206-.617 1.84l-.617 1.15.166.436c.092.239.417.514.721.61.305.097.967.607 1.47 1.133l.917.956h1.144zm583.826-12.484c.316-.17.761-.781.99-1.36.229-.578.686-1.355 1.016-1.726l.601-.674.19-1.164.188-1.164-.921-.403a14 14 0 0 1-1.82-1.011l-.899-.608-.861.642-.862.64-.16 2.096-.16 2.095-.583.643-.584.644.497.96c.717 1.386 1.366 1.461 3.368.39m-93.009-7.772c.459-.924.878-1.949.932-2.278l.099-.597-.48-.26a7 7 0 0 0-1.04-.432l-.56-.173v-1.508l-.72-.659c-.396-.362-1.215-.909-1.821-1.215l-1.101-.558-1.067.575-1.066.574-.64 1.035-.64 1.035.401.91c.503 1.142.833 1.38 1.923 1.386l.868.005.378.72c.208.396.825 1.248 1.371 1.893l.994 1.173.668.027.667.027zm84.161-6.803-.07-.937.67-.712.668-.713-.212-.845c-.116-.465-.545-1.157-.953-1.538-1.497-1.398-2.932-2.52-3.672-2.87l-.759-.36-.76.949c-.417.522-.76 1.238-.76 1.592l-.002.643.64.4.64.4v1.743l1.81 1.7 1.812 1.698.509-.106.509-.106zm-189.674-39.863.202-.327-1.067-1.76c-.587-.97-1.79-2.52-2.671-3.445l-1.604-1.682.223-1.26c.123-.693.232-1.508.243-1.81l.018-.55-1.28-.73-1.28-.73-.183-.565-.183-.565.983-1.24.983-1.242v-1.91l-.4-.315c-.22-.173-.796-.41-1.28-.525-1.116-.267-1.105-.503.08-1.638 1.757-1.684 1.165-2.202-1.26-1.102l-1.42.644-.42-.16-.42-.162v-1.64l-.496-.19-.497-.191-.803.755c-.442.415-1.099 1.232-1.46 1.816l-.655 1.06.52.576c.287.317 1.062.738 1.722.936s1.486.57 1.835.826l.634.467-1.082 1.122-1.083 1.12.195.508.195.508.979.196.979.196.789 1.346.789 1.347.8.364.799.364v.438c0 .24-.288.697-.64 1.016s-.64.802-.64 1.074c0 .273-.468.978-1.04 1.569l-1.04 1.073 1.497 1.342c.824.738 1.72 1.794 1.99 2.346l.492 1.004 2.877.027 2.877.027zm148.6-3.697c.915-1.163.839-1.727-.453-3.352l-1.117-1.405-.003-1.095-.003-1.095-.53-.585-.529-.585h-1.394l-1.203 1.04-1.204 1.04.703 2.24.702 2.24.643.56c.354.308.893.56 1.198.56s.816.288 1.134.64c.774.855 1.263.807 2.057-.203zM598.4 290.048v-.794l.65-.88.65-.88-.973-2.147-.973-2.147h-2.156l-.398-.48c-.22-.264-.676-.48-1.015-.48h-.618l-.463 1.11c-.6 1.433-.586 2.578.051 4.449l.516 1.513.762.5.762.498.437-.167.437-.168.905.594c1.065.7 1.426.567 1.426-.52m-50.044-11.93 1.032-1.722-.166-.433c-.092-.238-.927-.868-1.857-1.4s-1.867-1.18-2.083-1.44l-.393-.474.18-1.045c.1-.574.274-1.498.388-2.054l.207-1.01-.732-.99-.732-.99h-2.681l-.4.48c-.218.264-.47 1.118-.557 1.897l-.16 1.417 1.678 2.735 1.677 2.736-.198.808-.391 1.58-.192.773.912.502.912.503 1.262-.076 1.262-.075zm35.964-2.598c1.557-2.292 1.294-2.251 3.09-.48l1.462 1.44h1.193l.509-.776.508-.776.94-.327c1.134-.396 1.18-.765.19-1.543-.412-.324-.891-1.019-1.065-1.544l-.316-.954-1.52-.381c-.836-.21-1.717-.545-1.958-.745l-.437-.363-.098-1.174-.098-1.175-1.084-.51-1.085-.51-.456-.87-.456-.871-.54.103-.54.104-.348 1.075-.349 1.076-1.01.425c-1.144.48-1.211.742-.53 2.059l.48.93-1.28.384-1.282.384v.596c0 1.511 3.33 6.343 4.37 6.343h.406zm87.381-17.824.92-.543.307-.878.306-.879 1.319-.672c.725-.37 1.394-.87 1.487-1.113l.169-.44-.503-.766-.503-.767.469-.62c.257-.34.472-.951.478-1.359l.01-.74-1.621-1.58-1.622-1.58.192-.603.191-.604 1.27-.84 1.27-.841v-.525c0-.713-1.524-2.666-2.08-2.666-.246 0-.835.508-1.309 1.13l-.86 1.128-.676-.493c-.371-.272-.86-.581-1.087-.688l-.412-.195-.628.569c-.345.312-.628.818-.628 1.124v.557l.546.21.546.209-.917.73-.916.732.209 1.045.209 1.046.801.952c.441.524.802 1.177.802 1.45 0 .274.288.965.64 1.535l.64 1.036-1.117.761-1.119.762-.002.565-.002.565 1.12.534c1.232.588 1.355.943.65 1.875-.258.341-.474.801-.48 1.021l-.01.4h.511c.28 0 .925-.245 1.43-.544zM597.33 256.6l.43-.357v-2.354l-.384-.384-.384-.384h-2.394l-.232-.374c-.127-.206-.243-1.102-.259-1.99l-.027-1.615-1.403-.49-1.403-.491-.597-1.115-.597-1.115v-2.054l-.743-.864-.743-.865-1.112.209-1.112.209-1.105.933-1.105.934.513.525c.282.29 1.074.721 1.76.96l1.247.434-.071.585c-.04.321-.112.941-.16 1.378l-.089.795 1.12.373 1.12.373-.045.592c-.025.326-.185 1.266-.354 2.088-.427 2.067-.001 2.506 3.063 3.163l1.593.341.584.646.584.646.937-.187c.515-.103 1.13-.349 1.368-.545m-454.021-6.854c.533-1.17.458-2.078-.27-3.273-.352-.576-.639-1.34-.639-1.696a3.185 3.185 0 0 0-3.179-3.176h-.981l-.048.4c-.027.22-.098.832-.157 1.36-.06.528-.194 1.68-.298 2.56l-.188 1.6.746.674c1.04.94 3.523 2.36 4.134 2.363l.508.003zm420.988-10.568.503-.503v-.953c0-.524.214-1.367.476-1.874l.476-.92-.367-1.704a24 24 0 0 1-.437-3.394l-.068-1.69-.57-.63-.57-.629h-1.454l-.516.516-.516.516.511.78.512.782-.979 1.114-.978 1.114v3.708l.94 1.415c.916 1.381 2.16 2.855 2.41 2.855.068 0 .35-.226.627-.503m-61.856-9.337c.19-.484.495-1.816.679-2.96l.333-2.08.994-.65.993-.648-.037-2.871-.037-2.871-.539-.107c-.296-.058-.882.119-1.3.394l-.763.499-.102.839-.102.839-1.224.418c-1.606.55-1.632.589-1.199 1.822l.372 1.056-.522.32c-.287.176-.762.488-1.055.694l-.532.374.446 1.066c.245.586.505 1.714.579 2.506s.192 1.62.264 1.84l.13.4h2.277zm49.959-1.951 1.52-.719v-2.191l-.992-.73-.992-.729-.621-1.213-.621-1.213-.863-.328-.863-.328-.6.741-.602.741.162 1.788.162 1.788.532 1.03c.61 1.178 1.714 2.37 2.038 2.198.121-.064.904-.44 1.74-.835m25.136-.433c.211-.211.384-.783.384-1.272v-.888l.921-.476c1.159-.6 1.319-1.03 1.319-3.543v-2.031l-.503-.503c-.276-.277-.816-.508-1.2-.514-.383-.006-1.046-.205-1.473-.442l-.777-.43-1.357.463-1.358.462-.183.477-.183.477.735.734c.405.405.931.8 1.17.88l.437.146-.895 1.643-.895 1.644.22.899c.122.494.3 1.294.398 1.778l.177.88h2.679zm-45.544-19.44c.268-.52.488-1.167.488-1.44v-.496h.51c.281 0 .926-.245 1.432-.544l.92-.544.793.745.792.744.459-.176.458-.176.165-1.064c.09-.586.266-1.382.39-1.77l.228-.704-.869-.805-.868-.804.319-.915.319-.916-.3-.535-.3-.536h-2.77l-.328-.4c-.18-.22-.489-1.004-.686-1.743l-.36-1.343-.872-.686a9.8 9.8 0 0 0-1.89-1.112l-1.02-.426-.863-1.305-.864-1.305h-1.195l.002 2.32.002 2.32.636.96.636.96.002.857.002.857.8.629.8.63v2.929l-1.6.689-1.6.688v.39c0 .216.302.666.673 1.001.37.335 1.032 1.222 1.471 1.971.91 1.553 1.49 1.975 2.727 1.99l.872.01zm-.137-3.337c-.184-.484-.335-1.015-.335-1.18v-.299h.96c1.136 0 1.138.011.335 1.332l-.625 1.028zm182.37 1.579.384-.462 1.175-.098 1.176-.098-.081-1.556-.081-1.557.96-1.095.962-1.094v-1.492l-.655-.832-.654-.832-1.026.188-1.025.189-.4.502c-.22.276-.4.857-.4 1.292v.79l-.787 1.343c-.433.739-1.153 1.583-1.6 1.876-.978.64-1.005 1-.176 2.358l.634 1.04h.605c.333 0 .778-.208.99-.462m-259.87-7.734.737-.517 1.052.567 1.052.567.492-.19.492-.188.228-1.038.228-1.038-.54-.394-.538-.394.421-.692.421-.692-.945-.76-.944-.762.544-.602q1.092-1.207-.122-2.5l-.668-.71.528-.805.527-.804-.667-1.306-.666-1.306-.554.01c-.683.014-1.622.79-2.56 2.12l-.713 1.009v2.289l-.72.16c-.396.087-1.224.198-1.84.246l-1.12.086v.936l1.36.913 1.36.913v.448c0 .246.44.949.978 1.561l.978 1.114-.214 1.137-.213 1.138h.444c.245 0 .776-.232 1.182-.516m82.872-3.42c.19-.229.443-1.028.563-1.777l.217-1.362-1.083-1.05c-.596-.578-1.374-1.54-1.728-2.14l-.645-1.088-.58-.111-.579-.112-.616.558-.616.557v.707c0 .39.268 1.051.595 1.47s.847 1.268 1.156 1.884c1.143 2.279 2.582 3.348 3.316 2.464m-109.5-3.543.882-.76-.43-1.303-.43-1.305.351-.896c.547-1.395.598-4.257.076-4.257-.167 0-.95.437-1.742.97l-1.437.97-.221.71c-.122.39-.706 1.25-1.298 1.91-1.307 1.457-1.33 1.807-.198 2.851 2.23 2.055 3.097 2.271 4.447 1.11m73.453-18.643 1.214-.841.484.401.484.402 1.018-.204c.56-.112 1.279-.44 1.598-.728l.58-.525-.358-.432-.358-.431h-2.354l-.384-.384-.384-.384-.005-.976c-.003-.537-.29-2.11-.64-3.497-.35-1.386-.635-2.646-.635-2.8v-.279h2.576l.34-.88.34-.88-.28-.8-.28-.8h-3.084l-.48-1.2-.48-1.2h-.477c-.262 0-.9.25-1.419.557l-.942.557-.165.803c-.091.442-.318 1.41-.506 2.152l-.34 1.35.19 2.97c.106 1.634.31 3.799.456 4.81l.265 1.84 1.086 1.12c1.3 1.343 1.392 1.352 2.94.28m54.946-6.637.365-.44-.186-.486-.187-.485 1.008-1.148 1.008-1.148.41-1.554.41-1.553-.425-.811-.425-.812-1.15-.546-1.151-.546-.444.369c-.244.202-.9 1.08-1.458 1.948l-1.014 1.58.17.876.17.875-.492.547-.491.547.21 1.123c.116.617.432 1.343.701 1.613l.49.49h2.117zm28.197-4.812 1.509-1.412 1.826-.228 1.827-.228.92-.775c.507-.426 1.008-1.048 1.114-1.382l.193-.608-.66-1.293-.66-1.294-.8-.524-.8-.524-.983.197c-.54.108-1.389.486-1.885.84l-.903.642h-1.719l-.842.96-.843.96h-.59c-.324 0-.845.137-1.159.305l-.57.305-.549 1.438-.55 1.439.346.646.346.645 1.194.331c.657.182 1.411.473 1.675.646.758.497.962.41 2.563-1.086m12.22-8.409c1.072-1.027 1.109-1.509.227-2.954l-.667-1.095.204-.985c.112-.542.285-1.46.385-2.04l.181-1.055-.566-.625-.566-.626h-2.063l-.398.48-.398.48h-1.444l-.372.45-.373.448.365 2.831c.452 3.494.523 3.637 2.08 4.176.693.24 1.472.648 1.73.906.615.614.629.611 1.675-.39m-110.474-3.415c-.015-1.291-.63-2.387-1.612-2.875l-.777-.385-.102-.879-.102-.88-.938-.693-.938-.693v-2.11l-.925-1.035-.925-1.036-1.852-.01-1.852-.01-.613 1.04-.612 1.04.383 1.68c.211.924.491 1.896.622 2.16l.239.48 1.002.1 1.003.1 1.125 1.373 1.125 1.373v2.355l.454.174.454.174.797-.522.797-.522 1.046 1.022 1.046 1.023.583-.72.583-.72zm165.135.675c.349-.572.72-1.496.826-2.053l.191-1.013-.43-.894-.431-.894-1.874-1.053c-1.03-.58-2.078-1.053-2.328-1.053h-.454l-.31.816-.31.816.31 1.344c.17.74.314 1.866.318 2.505l.008 1.16.4.331c.398.329 2.274.944 3.045 1l.405.028zM424.8 135.6l1.111-.72.004-.483c.002-.266-.284-.663-.636-.883l-.64-.4v-2.156l-1.04-.417c-.572-.229-1.595-.907-2.273-1.507l-1.232-1.092-.688.185c-.378.101-.863.186-1.079.189-.438.005-1.368 1.624-1.368 2.382v.49l.805.202.805.202.635.807.635.807v1.809l.7.653.7.652h2.449zm195.935-10.544c.211-.211.384-.699.384-1.083 0-.385.215-1.112.478-1.616.263-.505.479-1.214.48-1.578l.002-.66 1.13-.54c.621-.296 1.213-.755 1.315-1.021l.185-.483-.491-.75c-.27-.412-.538-1.24-.595-1.837l-.104-1.088-.8.064c-2.716.217-3.977.425-4.254.702l-.315.315.846 1.007.847 1.006-1.762 2.122-1.762 2.123v1.118l.72.382c.396.21.915.658 1.154.995.37.52 1.362 1.114 1.982 1.186.097.01.349-.153.56-.364m-173.767-3.954.711-.498v-4.012l-.783-.736-.782-.735-.097-.84-.098-.841h-1.546l-1.046 1.44c-.575.792-1.055 1.688-1.067 1.992l-.021.552.948.49.948.49.342 1.268.34 1.267.551.32c.73.426.774.421 1.6-.157m128.399-3.523c.172-.451.312-1.152.312-1.557v-.736l.69-.877.69-.878-.914-1.69-.915-1.691.344-1.121.344-1.122-.2-.293c-.11-.162-1.022-.474-2.027-.694l-1.829-.4-1.422.833c-.783.459-1.513 1.07-1.624 1.357l-.2.524.411.4c.227.22.916.528 1.532.685l1.12.286-.022 1.418c-.012.78-.084 2.199-.16 3.154l-.138 1.738 1.087.742 1.088.743h1.52zm114.13-2.414 1.092-.676.188-.938.187-.938 1.078-.45 1.077-.45v-.473c0-.26-.349-.748-.775-1.083l-.774-.61.177-1.947.176-1.948-.708-1.146c-.39-.63-.813-1.146-.94-1.146-.129 0-.505-.198-.836-.44l-.603-.441.861-1.024c1.098-1.305 1.083-1.662-.131-3.044-1.157-1.317-1.457-1.363-2.99-.458l-1.141.673-.184.847c-.101.466-.328 1.23-.505 1.698l-.32.85.322.604.323.604-.928 1.381-.928 1.382.314.587c.173.323 1.177 1.251 2.232 2.063 2.176 1.674 2.216 1.787 1.118 3.226-1.022 1.34-1.006 1.684.142 2.94 1.116 1.222 1.083 1.217 2.475.357m-7.457-12.896c.814-.952 1.479-1.956 1.479-2.232v-.5l-.96-.497-.96-.496v-2.138l-1.493-1.163c-1.674-1.305-1.983-1.368-3.323-.675l-.944.488.002.712c.001.392.15 1.246.331 1.898l.33 1.186.88.627.88.626-.127 1.324-.126 1.323.565.624.564.624h1.423zm6.652-24.903c.141-.223.26-.869.262-1.435l.005-1.029-1.04-1.184c-.572-.65-1.184-1.617-1.36-2.148l-.32-.964-1.41-.743c-1.842-.97-2.024-.948-3.197.388l-.993 1.131v1.559l.927.685.927.686.183.914.183.913 1.37.89c.754.49 1.586.978 1.85 1.085l.48.193.938-.268c.515-.147 1.053-.45 1.195-.673zm-11.587-7.134 1.427-.07.14-.419.139-.418-.868-.692-.867-.691.676-1.297c.372-.713.757-1.794.855-2.402l.18-1.104-.52-1.006c-.287-.554-.878-1.24-1.315-1.527l-.793-.52v-2.128l-.313-.193c-.172-.107-.878-.041-1.57.145l-1.259.339-.989 1.127-.989 1.126v2.812l.816.641c.449.354.981.697 1.183.765l.367.122-.424 1.025-.424 1.025.566 1.514c.311.833.716 1.704.899 1.936l.332.422.663-.23c.364-.128 1.304-.263 2.088-.302m-8.863-2.565c.974-.903 1.01-1.038.572-2.188l-.305-.803-1.532-.098-1.532-.098-.115-.64c-.063-.352-.372-.928-.687-1.28-.856-.958-1.841-3.068-2.099-4.495-.126-.696-.373-1.447-.55-1.67l-.322-.405-1.637.208c-.9.114-1.985.386-2.412.603l-.777.396.697.373.696.373v5.371l.52.52c.286.286 1.914 1.22 3.617 2.074 1.703.855 3.287 1.784 3.52 2.063.602.726 1.338.63 2.346-.304m-164.932-2.095c.819-.72 1.607-1.518 1.752-1.773l.263-.464-.868-1.481-.868-1.481.365-1.01c.2-.554.365-1.505.365-2.111v-1.103l-.812-1.195-.811-1.194h-2.824l-.841 1.102-.841 1.103-.103 1.377c-.057.758-.198 1.612-.315 1.899l-.211.52 1.779 1.751 1.779 1.751v.668c0 .367-.145 1.049-.322 1.515-.704 1.85.482 1.91 2.513.126m-1.237-23.644 1.007-1.272-.26-.448c-.144-.247-.741-.85-1.328-1.34l-1.068-.89.216-2.151.216-2.15-1.099-.839c-.604-.46-1.183-.838-1.287-.838s-.572-.146-1.04-.324l-.851-.323.985-1.122c1.106-1.26 1.477-2.343 1.192-3.479l-.193-.767-1.59-.382-1.59-.38-.2-.63c-.109-.347-.1-1.343.019-2.215l.218-1.585-1.14-.477c-.627-.262-1.422-.476-1.766-.476h-.625l-1.474 1.68-1.474 1.68.089.64.089.64 2.074.097 2.074.097.591.536.592.536-.148.967-.148.967.5.86.5.86-1.658 1.49c-2.243 2.016-2.142 2.71.396 2.71 1.452 0 1.558.244.634 1.455l-.806 1.057.1 1.384.099 1.384 1.44.347 1.44.347.093.613c.05.337.161.938.246 1.335l.154.721 1.034.453c.568.248 1.417.464 1.886.478l.853.026Zm106.81-23.409c.481-.726 1.56-2.072 2.396-2.99l1.52-1.67V12.37l-.53-.585-.53-.585h-1.388l-.736.783-.736.784-1 .213c-1.268.271-1.8.7-1.8 1.452v.593l-.8.524-.8.525v1.128l.88.366.88.365.545.954c.722 1.263 1.054 1.205 2.098-.368M.01 348.72 0 346.88h.283c.293 0 .665 1.071.673 1.939.002.274-.207.778-.466 1.12l-.47.621ZM0 310.08v-2.24h.297c.453 0 1.623 1.615 1.623 2.24s-1.17 2.24-1.623 2.24H0Z" style="display:inline;fill:#e5a952;fill-opacity:1" transform="matrix(1 0 0 .58797 0 -3.736)"/></g><g style="fill:#2f2f2f;fill-opacity:1"><path d="m231.04 250.411-11.192-19.274h9.044l5.765 10.74 1.3 2.882 1.244-2.883 5.878-10.74h8.761l-11.361 19.332 11.7 20.235h-9.043l-6.048-11.305-1.527-3.052-1.47 3.052-6.33 11.305H219z" aria-label="X" style="font-weight:700;font-size:56.5236px;font-family:&quot;PT Mono&quot;;stroke-width:1.33333" transform="translate(-700.337 -790.02)scale(3.70326)"/><path d="M257.34 256.572q0-6.84 3.561-10.796 3.561-4.013 10.174-4.013 3.561 0 6.105 1.187 2.6 1.13 4.296 3.109 1.695 1.978 2.487 4.691.848 2.713.848 5.822 0 3.392-.905 6.161-.904 2.713-2.656 4.635t-4.353 2.996q-2.543 1.017-5.822 1.017-3.504 0-6.104-1.13-2.6-1.187-4.296-3.165-1.696-1.979-2.543-4.692-.792-2.713-.792-5.822m4.692 0q0 1.979.452 3.957.509 1.978 1.583 3.56 1.073 1.584 2.77 2.544 1.751.961 4.238.961 4.522 0 6.783-2.77 2.318-2.826 2.318-8.252 0-2.035-.509-3.956-.452-1.979-1.583-3.561-1.074-1.583-2.826-2.544-1.696-.96-4.183-.96-4.521 0-6.782 2.769t-2.261 8.252" aria-label="o" style="font-size:56.5236px;font-family:&quot;PT Mono&quot;;stroke-width:1.33333" transform="translate(-700.337 -790.02)scale(3.70326)"/><path d="M293.363 270.703v-3.787h7.63v-20.688h-7.63v-3.787h10.57l.904 3.674h.283q1.922-1.752 4.296-2.995t5.652-1.244q1.922 0 3.052.735 1.187.735 1.81 2.148.677 1.413.903 3.448.227 1.978.227 4.522l-3.957.056q0-3.617-.735-5.313-.678-1.696-2.543-1.696-1.753 0-3.166.509t-2.487 1.243q-1.017.735-1.752 1.47t-1.074 1.244v16.674h10.853v3.787z" aria-label="r" style="font-size:56.5236px;font-family:&quot;PT Mono&quot;;stroke-width:1.33333" transform="translate(-700.337 -790.02)scale(3.70326)"/><path d="M327.366 250.202q0-5.315 1.11-9.287 1.11-4.03 3.095-6.658 2.045-2.629 4.848-3.914 2.804-1.343 6.25-1.343 7.36 0 11.33 5.198 3.973 5.14 3.973 16.004 0 5.374-1.11 9.404-1.11 3.971-3.154 6.658-1.986 2.628-4.848 3.972-2.804 1.285-6.25 1.285-7.417 0-11.33-5.432-3.914-5.49-3.914-15.887m23.13 0q0-.934-.059-1.752 0-.876-.058-1.694l-14.31 13.025q1.81 5.315 6.6 5.315 3.738 0 5.782-3.563t2.044-11.331m-15.654 0v1.694q.059.76.117 1.577l14.251-13.025q-1.752-5.023-6.6-5.023-3.738 0-5.782 3.621-1.986 3.563-1.986 11.156" aria-label="0" style="font-weight:700;font-size:58.4077px;font-family:&quot;PT Mono&quot;;stroke-width:1.33333" transform="translate(-700.337 -790.02)scale(3.70326)"/></g></g></svg>